<svg xmlns="http://www.w3.org/2000/svg" xmlns:xlink="http://www.w3.org/1999/xlink" width="457.5" height="134.61" viewBox="0 0 457.5 134.61"><defs><mask id="a" x="95.58" y="2.61" width="3.97" height="3.97" maskUnits="userSpaceOnUse"><polygon points="95.58 2.62 99.55 2.62 99.55 6.58 95.58 6.58 95.58 2.62" fill="#fff" fill-rule="evenodd"/></mask><mask id="b" x="23.94" y="14.27" width="410" height="94.23" maskUnits="userSpaceOnUse"><polygon points="23.95 108.5 433.95 108.5 433.95 14.27 23.95 14.27 23.95 108.5" fill="#fff" fill-rule="evenodd"/></mask><mask id="e" x="22.49" y="14.27" width="410" height="94.23" maskUnits="userSpaceOnUse"><polygon points="22.5 108.5 432.5 108.5 432.5 14.27 22.5 14.27 22.5 108.5" fill="#fff" fill-rule="evenodd"/></mask></defs><path d="M82.21,56.78,93.05,46.56l-2.5-2.5a38.1,38.1,0,0,0-26-11.22V27.52a2.52,2.52,0,1,0-5,0V33a38.25,38.25,0,0,0-6.88,1.35V27.52a2.52,2.52,0,1,0-5,0v8.71a38.38,38.38,0,0,0,15.19,73.36v0H92.64V93.09L72.5,77.92A11.2,11.2,0,0,0,73,65.17Zm3.57,39.73v6.24H63.38A31.53,31.53,0,0,1,47.59,43.94V54.28a2.52,2.52,0,1,0,5,0V41.57A31.61,31.61,0,0,1,63.4,39.68,31.28,31.28,0,0,1,83,46.52L67.66,60.72a11.2,11.2,0,0,0-4.26-.84,11.33,11.33,0,1,0,3.2,22.19ZM67.86,71.21a4.46,4.46,0,1,1-4.46-4.46A4.46,4.46,0,0,1,67.86,71.21Z" fill="#15003e" fill-rule="evenodd"/><path d="M90.24,71.21A26.62,26.62,0,0,1,84.9,87.26l-5.49-4.14a19.95,19.95,0,0,0,0-23.83l2.78-2.52,2.29-2.15A26.54,26.54,0,0,1,90.24,71.21Z" fill="#0fce7c" fill-rule="evenodd"/><polygon points="100.58 29.4 97.83 32.16 95.08 29.4 97.83 26.65 100.58 29.4" fill="#25e899" fill-rule="evenodd"/><polygon points="85.88 16.14 84.57 17.46 83.25 16.14 84.57 14.83 85.88 16.14" fill="#25e899" fill-rule="evenodd"/><g mask="url(#a)"><path d="M99.54,4.6a2,2,0,1,0-2,2,2,2,0,0,0,2-2" fill="#25e899" fill-rule="evenodd"/></g><path d="M146,70h17.12v1.37a28.34,28.34,0,0,1-1.1,8.26,17.75,17.75,0,0,1-3.62,6.23,18.77,18.77,0,0,1-14.68,6.49,20.16,20.16,0,0,1-14.89-6.28,20.8,20.8,0,0,1-6.19-15.13,21.51,21.51,0,0,1,21.65-21.59,21.18,21.18,0,0,1,9.06,2,26.28,26.28,0,0,1,7.92,6.42L156.76,62q-5.1-6.8-12.42-6.79a14.81,14.81,0,0,0-11,4.54,15.11,15.11,0,0,0-4.46,11.16,15.56,15.56,0,0,0,15,15.55,12.51,12.51,0,0,0,8.29-3.1,11,11,0,0,0,4.1-7.49H146Z" fill="#15003e" fill-rule="evenodd"/><g mask="url(#b)"><polygon points="184.21 91.55 190.46 91.55 190.46 50.13 184.21 50.13 184.21 91.55" fill="#15003e" fill-rule="evenodd"/></g><g mask="url(#b)"><polygon points="226.13 56.01 226.13 91.55 219.88 91.55 219.88 56.01 210.35 56.01 210.35 50.13 235.62 50.13 235.62 56.01 226.13 56.01" fill="#15003e" fill-rule="evenodd"/></g><g mask="url(#b)"><path d="M284.62,52.34v7.4q-5.42-4.55-11.21-4.54a14.28,14.28,0,0,0-10.76,4.59A15.48,15.48,0,0,0,258.25,71a15.12,15.12,0,0,0,4.4,11,14.51,14.51,0,0,0,10.78,4.48A13.15,13.15,0,0,0,279,85.35a16,16,0,0,0,2.67-1.44,33.78,33.78,0,0,0,2.91-2.2v7.55a22.49,22.49,0,0,1-11.26,3,20.77,20.77,0,0,1-15.16-6.19A20.55,20.55,0,0,1,252,71a21.24,21.24,0,0,1,5.23-14.11,20.82,20.82,0,0,1,16.66-7.59,21.21,21.21,0,0,1,10.78,3" fill="#15003e" fill-rule="evenodd"/></g><g mask="url(#e)"><path d="M310.15,64.12a15.35,15.35,0,0,0,26.21,11.2,15.19,15.19,0,0,0,4.48-11.09,15.19,15.19,0,0,0-4.43-11.1,14.61,14.61,0,0,0-10.89-4.5,14.77,14.77,0,0,0-10.92,4.5,14.92,14.92,0,0,0-4.45,11m-6.3-.07a20.27,20.27,0,0,1,6.41-15,21.11,21.11,0,0,1,15.34-6.28,21.66,21.66,0,0,1,21.54,21.54,20.35,20.35,0,0,1-6.38,15.16,21.9,21.9,0,0,1-29.89.7q-7-6.15-7-16.1" fill="#0fce7c" fill-rule="evenodd"/></g><g mask="url(#e)"><polygon points="365.55 91.55 371.8 91.55 371.8 50.13 365.55 50.13 365.55 91.55" fill="#15003e" fill-rule="evenodd"/></g><g mask="url(#e)"><polygon points="396.04 91.55 396.04 47.31 426.25 78.92 426.25 50.13 432.5 50.13 432.5 94.07 402.29 62.55 402.29 91.55 396.04 91.55" fill="#15003e" fill-rule="evenodd"/></g></svg>