<svg xmlns="http://www.w3.org/2000/svg" xmlns:xlink="http://www.w3.org/1999/xlink" width="75.58" height="106.99" viewBox="0 0 75.58 106.99"><defs><mask id="a" x="70.58" y="0" width="3.97" height="3.97" maskUnits="userSpaceOnUse"><polygon points="70.58 0 74.55 0 74.55 3.97 70.58 3.97 70.58 0" fill="#fff" fill-rule="evenodd"/></mask></defs><path d="M57.21,54.16,68.05,43.94l-2.5-2.5a38.15,38.15,0,0,0-26-11.22V24.9a2.52,2.52,0,0,0-5,0v5.49a38.26,38.26,0,0,0-6.88,1.36V24.9a2.52,2.52,0,0,0-5,0v8.72A38.38,38.38,0,0,0,37.78,107H67.64V90.47L47.5,75.31A11.22,11.22,0,0,0,48,62.55ZM60.78,93.9v6.23H38.38a31.52,31.52,0,0,1-15.79-58.8V51.66a2.52,2.52,0,1,0,5,0V39A31.54,31.54,0,0,1,58,43.91L42.66,58.11a11.2,11.2,0,0,0-4.26-.84,11.33,11.33,0,1,0,0,22.65,11.67,11.67,0,0,0,3.2-.46ZM42.86,68.6a4.46,4.46,0,1,1-4.46-4.47A4.46,4.46,0,0,1,42.86,68.6Z" fill="#fff" fill-rule="evenodd"/><path d="M65.24,68.6A26.62,26.62,0,0,1,59.9,84.65l-5.49-4.14a19.95,19.95,0,0,0,0-23.83l2.78-2.52L59.5,52A26.54,26.54,0,0,1,65.24,68.6Z" fill="#0fce7c" fill-rule="evenodd"/><polygon points="75.58 26.79 72.83 29.54 70.08 26.79 72.83 24.04 75.58 26.79" fill="#25e899" fill-rule="evenodd"/><polygon points="60.88 13.53 59.57 14.85 58.25 13.53 59.57 12.21 60.88 13.53" fill="#25e899" fill-rule="evenodd"/><g mask="url(#a)"><path d="M74.54,2a2,2,0,1,0-2,2,2,2,0,0,0,2-2" fill="#25e899" fill-rule="evenodd"/></g></svg>