<svg xmlns="http://www.w3.org/2000/svg" xmlns:xlink="http://www.w3.org/1999/xlink" width="360.2" height="223.72" viewBox="0 0 360.2 223.72"><defs><mask id="a" x="213.04" y="2.61" width="3.97" height="3.97" maskUnits="userSpaceOnUse"><polygon points="213.03 2.62 217 2.62 217 6.58 213.03 6.58 213.03 2.62" fill="#fff" fill-rule="evenodd"/></mask><mask id="b" x="-73.35" y="121.43" width="410" height="94.23" maskUnits="userSpaceOnUse"><polygon points="-73.35 215.66 336.65 215.66 336.65 121.43 -73.35 121.43 -73.35 215.66" fill="#fff" fill-rule="evenodd"/></mask><mask id="e" x="-74.8" y="121.43" width="410" height="94.23" maskUnits="userSpaceOnUse"><polygon points="-74.8 215.66 335.2 215.66 335.2 121.43 -74.8 121.43 -74.8 215.66" fill="#fff" fill-rule="evenodd"/></mask></defs><path d="M199.67,56.78l10.84-10.22-2.5-2.5a38.14,38.14,0,0,0-26-11.22V27.52a2.52,2.52,0,1,0-5,0V33a38.25,38.25,0,0,0-6.88,1.35V27.52a2.52,2.52,0,1,0-5,0v8.71a38.38,38.38,0,0,0,15.18,73.36v0H210.1V93.09L190,77.92a11.25,11.25,0,0,0,.46-12.75Zm3.57,39.73v6.24h-22.4a31.53,31.53,0,0,1-15.79-58.81V54.28a2.52,2.52,0,1,0,5,0V41.57a31.6,31.6,0,0,1,30.4,5l-15.37,14.2a11.16,11.16,0,0,0-4.26-.84,11.33,11.33,0,0,0,0,22.66,11.2,11.2,0,0,0,3.2-.47Zm-17.92-25.3a4.47,4.47,0,1,1-4.47-4.46A4.47,4.47,0,0,1,185.32,71.21Z" fill="#fff" fill-rule="evenodd"/><path d="M207.69,71.21a26.62,26.62,0,0,1-5.34,16.05l-5.49-4.14a19.95,19.95,0,0,0,0-23.83l2.78-2.52L202,54.62A26.54,26.54,0,0,1,207.69,71.21Z" fill="#0fce7c" fill-rule="evenodd"/><polygon points="218.04 29.4 215.28 32.16 212.53 29.4 215.28 26.65 218.04 29.4" fill="#25e899" fill-rule="evenodd"/><polygon points="203.34 16.14 202.03 17.46 200.71 16.14 202.03 14.83 203.34 16.14" fill="#25e899" fill-rule="evenodd"/><g mask="url(#a)"><path d="M217,4.6a2,2,0,1,0-2,2,2,2,0,0,0,2-2" fill="#25e899" fill-rule="evenodd"/></g><path d="M48.66,177.15H65.77v1.37a28.39,28.39,0,0,1-1.1,8.26A17.56,17.56,0,0,1,61.05,193a18.77,18.77,0,0,1-14.68,6.49,20.17,20.17,0,0,1-14.88-6.27,21.57,21.57,0,0,1,15.45-36.73,21,21,0,0,1,9.06,2,26,26,0,0,1,7.92,6.42l-4.45,4.27q-5.1-6.79-12.42-6.79a14.84,14.84,0,0,0-11,4.53,15.13,15.13,0,0,0-4.45,11.16,14.67,14.67,0,0,0,5,11.4,14.82,14.82,0,0,0,10.06,4.16,12.49,12.49,0,0,0,8.29-3.1A11,11,0,0,0,59,183H48.66Z" fill="#fff" fill-rule="evenodd"/><g mask="url(#b)"><polygon points="86.91 198.72 93.17 198.72 93.17 157.3 86.91 157.3 86.91 198.72" fill="#fff" fill-rule="evenodd"/></g><g mask="url(#b)"><polygon points="128.83 163.17 128.83 198.72 122.58 198.72 122.58 163.17 113.06 163.17 113.06 157.3 138.33 157.3 138.33 163.17 128.83 163.17" fill="#fff" fill-rule="evenodd"/></g><g mask="url(#b)"><path d="M187.33,159.51v7.39q-5.43-4.53-11.22-4.53A14.28,14.28,0,0,0,165.35,167a15.48,15.48,0,0,0-4.4,11.16,15.09,15.09,0,0,0,4.4,11,14.54,14.54,0,0,0,10.79,4.48,13.18,13.18,0,0,0,5.61-1.07,16.45,16.45,0,0,0,2.66-1.45,30.58,30.58,0,0,0,2.92-2.2v7.55a22.54,22.54,0,0,1-11.27,3.05,20.81,20.81,0,0,1-15.16-6.2,20.51,20.51,0,0,1-6.25-15.07,21.29,21.29,0,0,1,5.23-14.12,20.83,20.83,0,0,1,16.66-7.59,21.26,21.26,0,0,1,10.79,3" fill="#fff" fill-rule="evenodd"/></g><g mask="url(#e)"><path d="M212.85,171.29a15.35,15.35,0,0,0,26.21,11.2,16.06,16.06,0,0,0,.06-22.19,15.44,15.44,0,0,0-21.81,0,14.92,14.92,0,0,0-4.46,11m-6.3-.07a20.29,20.29,0,0,1,6.41-15,21.09,21.09,0,0,1,15.35-6.28,21.66,21.66,0,0,1,21.54,21.54,20.36,20.36,0,0,1-6.39,15.16,21.87,21.87,0,0,1-29.88.69q-7-6.13-7-16.09" fill="#0fce7c" fill-rule="evenodd"/></g><g mask="url(#e)"><polygon points="268.26 198.72 274.51 198.72 274.51 157.3 268.26 157.3 268.26 198.72" fill="#fff" fill-rule="evenodd"/></g><g mask="url(#e)"><polygon points="298.75 198.72 298.75 154.48 328.95 186.08 328.95 157.3 335.2 157.3 335.2 201.24 305 169.72 305 198.72 298.75 198.72" fill="#fff" fill-rule="evenodd"/></g></svg>