<svg xmlns="http://www.w3.org/2000/svg" xmlns:xlink="http://www.w3.org/1999/xlink" width="407.5" height="106.99" viewBox="0 0 407.5 106.99"><defs><mask id="a" x="70.58" y="0" width="3.97" height="3.97" maskUnits="userSpaceOnUse"><polygon points="70.58 0 74.55 0 74.55 3.97 70.58 3.97 70.58 0" fill="#fff" fill-rule="evenodd"/></mask><mask id="b" x="-1.06" y="11.65" width="410" height="94.23" maskUnits="userSpaceOnUse"><polygon points="-1.05 105.88 408.95 105.88 408.95 11.65 -1.05 11.65 -1.05 105.88" fill="#fff" fill-rule="evenodd"/></mask><mask id="e" x="-2.51" y="11.65" width="410" height="94.23" maskUnits="userSpaceOnUse"><polygon points="-2.5 105.88 407.5 105.88 407.5 11.65 -2.5 11.65 -2.5 105.88" fill="#fff" fill-rule="evenodd"/></mask></defs><path d="M57.21,54.16,68.05,43.94l-2.5-2.5a38.15,38.15,0,0,0-26-11.22V24.9a2.52,2.52,0,0,0-5,0v5.49a38.26,38.26,0,0,0-6.88,1.36V24.9a2.52,2.52,0,0,0-5,0v8.72A38.38,38.38,0,0,0,37.78,107H67.64V90.47L47.5,75.31A11.22,11.22,0,0,0,48,62.55ZM60.78,93.9v6.23H38.38a31.52,31.52,0,0,1-15.79-58.8V51.66a2.52,2.52,0,1,0,5,0V39A31.54,31.54,0,0,1,58,43.91L42.66,58.11a11.2,11.2,0,0,0-4.26-.84,11.33,11.33,0,1,0,0,22.65,11.67,11.67,0,0,0,3.2-.46ZM42.86,68.6a4.46,4.46,0,1,1-4.46-4.47A4.46,4.46,0,0,1,42.86,68.6Z" fill="#15003e" fill-rule="evenodd"/><path d="M65.24,68.6A26.62,26.62,0,0,1,59.9,84.65l-5.49-4.14a19.95,19.95,0,0,0,0-23.83l2.78-2.52L59.5,52A26.54,26.54,0,0,1,65.24,68.6Z" fill="#0fce7c" fill-rule="evenodd"/><polygon points="75.58 26.79 72.83 29.54 70.08 26.79 72.83 24.04 75.58 26.79" fill="#25e899" fill-rule="evenodd"/><polygon points="60.88 13.53 59.57 14.85 58.25 13.53 59.57 12.21 60.88 13.53" fill="#25e899" fill-rule="evenodd"/><g mask="url(#a)"><path d="M74.54,2a2,2,0,1,0-2,2,2,2,0,0,0,2-2" fill="#25e899" fill-rule="evenodd"/></g><path d="M121,67.37h17.12v1.37A28.39,28.39,0,0,1,137,77a17.71,17.71,0,0,1-3.62,6.22,18.77,18.77,0,0,1-14.68,6.49,20.19,20.19,0,0,1-14.89-6.27,20.83,20.83,0,0,1-6.19-15.13,21.53,21.53,0,0,1,21.65-21.6,21,21,0,0,1,9.06,2,26.28,26.28,0,0,1,7.92,6.42l-4.46,4.27q-5.1-6.8-12.42-6.79a14.84,14.84,0,0,0-11,4.53,15.14,15.14,0,0,0-4.46,11.16,15.58,15.58,0,0,0,15,15.56,12.56,12.56,0,0,0,8.29-3.1,11.06,11.06,0,0,0,4.1-7.5H121Z" fill="#15003e" fill-rule="evenodd"/><g mask="url(#b)"><polygon points="159.21 88.94 165.46 88.94 165.46 47.52 159.21 47.52 159.21 88.94" fill="#15003e" fill-rule="evenodd"/></g><g mask="url(#b)"><polygon points="201.13 53.39 201.13 88.94 194.88 88.94 194.88 53.39 185.35 53.39 185.35 47.52 210.62 47.52 210.62 53.39 201.13 53.39" fill="#15003e" fill-rule="evenodd"/></g><g mask="url(#b)"><path d="M259.62,49.73v7.39q-5.42-4.53-11.21-4.53a14.28,14.28,0,0,0-10.76,4.59,15.44,15.44,0,0,0-4.4,11.15,15.09,15.09,0,0,0,4.4,11,14.51,14.51,0,0,0,10.78,4.48A13.15,13.15,0,0,0,254,82.74a16.11,16.11,0,0,0,2.67-1.45,31.84,31.84,0,0,0,2.91-2.2v7.55a22.5,22.5,0,0,1-11.26,3,20.78,20.78,0,0,1-15.16-6.2A20.53,20.53,0,0,1,227,68.42a21.29,21.29,0,0,1,5.23-14.12,20.82,20.82,0,0,1,16.66-7.59,21.22,21.22,0,0,1,10.78,3" fill="#15003e" fill-rule="evenodd"/></g><g mask="url(#e)"><path d="M285.15,61.51a15.35,15.35,0,0,0,26.21,11.2,15.23,15.23,0,0,0,4.48-11.1,15.15,15.15,0,0,0-4.43-11.09A14.62,14.62,0,0,0,300.52,46a15.3,15.3,0,0,0-15.37,15.5m-6.3-.07a20.25,20.25,0,0,1,6.41-15,21.07,21.07,0,0,1,15.34-6.28,21.65,21.65,0,0,1,21.54,21.54,20.35,20.35,0,0,1-6.38,15.16,21.88,21.88,0,0,1-29.89.69q-7-6.14-7-16.09" fill="#0fce7c" fill-rule="evenodd"/></g><g mask="url(#e)"><polygon points="340.55 88.94 346.8 88.94 346.8 47.52 340.55 47.52 340.55 88.94" fill="#15003e" fill-rule="evenodd"/></g><g mask="url(#e)"><polygon points="371.04 88.94 371.04 44.7 401.25 76.3 401.25 47.52 407.5 47.52 407.5 91.46 377.29 59.94 377.29 88.94 371.04 88.94" fill="#15003e" fill-rule="evenodd"/></g></svg>