<svg xmlns="http://www.w3.org/2000/svg" xmlns:xlink="http://www.w3.org/1999/xlink" width="125.58" height="134.61" viewBox="0 0 125.58 134.61"><defs><mask id="a" x="95.58" y="2.61" width="3.97" height="3.97" maskUnits="userSpaceOnUse"><polygon points="95.58 2.62 99.55 2.62 99.55 6.58 95.58 6.58 95.58 2.62" fill="#fff" fill-rule="evenodd"/></mask></defs><path d="M82.21,56.78,93.05,46.56l-2.5-2.5a38.1,38.1,0,0,0-26-11.22V27.52a2.52,2.52,0,1,0-5,0V33a38.25,38.25,0,0,0-6.88,1.35V27.52a2.52,2.52,0,1,0-5,0v8.71a38.38,38.38,0,0,0,15.19,73.36v0H92.64V93.09L72.5,77.92A11.2,11.2,0,0,0,73,65.17Zm3.57,39.73v6.24H63.38A31.53,31.53,0,0,1,47.59,43.94V54.28a2.52,2.52,0,1,0,5,0V41.57A31.61,31.61,0,0,1,63.4,39.68,31.28,31.28,0,0,1,83,46.52L67.66,60.72a11.2,11.2,0,0,0-4.26-.84,11.33,11.33,0,1,0,3.2,22.19ZM67.86,71.21a4.46,4.46,0,1,1-4.46-4.46A4.46,4.46,0,0,1,67.86,71.21Z" fill="#15003e" fill-rule="evenodd"/><path d="M90.24,71.21A26.62,26.62,0,0,1,84.9,87.26l-5.49-4.14a19.95,19.95,0,0,0,0-23.83l2.78-2.52,2.29-2.15A26.54,26.54,0,0,1,90.24,71.21Z" fill="#0fce7c" fill-rule="evenodd"/><polygon points="100.58 29.4 97.83 32.16 95.08 29.4 97.83 26.65 100.58 29.4" fill="#25e899" fill-rule="evenodd"/><polygon points="85.88 16.14 84.57 17.46 83.25 16.14 84.57 14.83 85.88 16.14" fill="#25e899" fill-rule="evenodd"/><g mask="url(#a)"><path d="M99.54,4.6a2,2,0,1,0-2,2,2,2,0,0,0,2-2" fill="#25e899" fill-rule="evenodd"/></g></svg>