<svg xmlns="http://www.w3.org/2000/svg" xmlns:xlink="http://www.w3.org/1999/xlink" width="309.91" height="198.63" viewBox="0 0 309.91 198.63"><defs><mask id="a" x="187.75" y="0" width="3.97" height="3.97" maskUnits="userSpaceOnUse"><polygon points="187.75 0 191.71 0 191.71 3.97 187.75 3.97 187.75 0" fill="#fff" fill-rule="evenodd"/></mask><mask id="b" x="-98.64" y="118.82" width="410" height="94.23" maskUnits="userSpaceOnUse"><polygon points="-98.64 213.05 311.36 213.05 311.36 118.82 -98.64 118.82 -98.64 213.05" fill="#fff" fill-rule="evenodd"/></mask><mask id="e" x="-100.09" y="118.82" width="410" height="94.23" maskUnits="userSpaceOnUse"><polygon points="-100.09 213.05 309.91 213.05 309.91 118.82 -100.09 118.82 -100.09 213.05" fill="#fff" fill-rule="evenodd"/></mask></defs><path d="M174.38,54.16l10.84-10.22-2.5-2.5a38.19,38.19,0,0,0-26-11.22V24.9a2.52,2.52,0,0,0-5,0v5.49a38.26,38.26,0,0,0-6.88,1.36V24.9a2.52,2.52,0,0,0-5,0v8.72A38.38,38.38,0,0,0,154.94,107h29.87V90.47L164.67,75.31a11.26,11.26,0,0,0,.46-12.76ZM178,93.9v6.23h-22.4a31.52,31.52,0,0,1-15.79-58.8V51.66a2.52,2.52,0,1,0,5,0V39a31.53,31.53,0,0,1,30.4,4.95l-15.37,14.2a11.16,11.16,0,0,0-4.26-.84,11.33,11.33,0,0,0,0,22.65,11.56,11.56,0,0,0,3.2-.46ZM160,68.6a4.47,4.47,0,1,1-4.47-4.47A4.47,4.47,0,0,1,160,68.6Z" fill="#15003e" fill-rule="evenodd"/><path d="M182.4,68.6a26.68,26.68,0,0,1-5.33,16.05l-5.5-4.14a19.95,19.95,0,0,0,0-23.83l2.79-2.52L176.66,52A26.54,26.54,0,0,1,182.4,68.6Z" fill="#0fce7c" fill-rule="evenodd"/><polygon points="192.75 26.79 190 29.54 187.25 26.79 190 24.04 192.75 26.79" fill="#25e899" fill-rule="evenodd"/><polygon points="178.05 13.53 176.74 14.85 175.42 13.53 176.74 12.21 178.05 13.53" fill="#25e899" fill-rule="evenodd"/><g mask="url(#a)"><path d="M191.71,2a2,2,0,1,0-2,2,2,2,0,0,0,2-2" fill="#25e899" fill-rule="evenodd"/></g><path d="M23.37,174.53H40.48v1.37a28.41,28.41,0,0,1-1.1,8.27,17.65,17.65,0,0,1-3.62,6.22,18.77,18.77,0,0,1-14.68,6.49A20.14,20.14,0,0,1,6.2,190.6a21.63,21.63,0,0,1,.1-30.42,20.91,20.91,0,0,1,15.35-6.3,21.15,21.15,0,0,1,9.06,2,25.94,25.94,0,0,1,7.92,6.43l-4.45,4.26q-5.1-6.78-12.42-6.79a14.81,14.81,0,0,0-11,4.54,15.12,15.12,0,0,0-4.45,11.16,14.68,14.68,0,0,0,5,11.4A14.82,14.82,0,0,0,21.3,191a12.5,12.5,0,0,0,8.29-3.11,11,11,0,0,0,4.1-7.49H23.37Z" fill="#fff" fill-rule="evenodd"/><g mask="url(#b)"><polygon points="61.62 196.1 67.88 196.1 67.88 154.68 61.62 154.68 61.62 196.1" fill="#fff" fill-rule="evenodd"/></g><g mask="url(#b)"><polygon points="103.54 160.56 103.54 196.1 97.29 196.1 97.29 160.56 87.77 160.56 87.77 154.68 113.04 154.68 113.04 160.56 103.54 160.56" fill="#fff" fill-rule="evenodd"/></g><g mask="url(#b)"><path d="M162,156.9v7.39q-5.43-4.53-11.22-4.54a14.28,14.28,0,0,0-10.76,4.59,15.48,15.48,0,0,0-4.4,11.16,15.11,15.11,0,0,0,4.4,11A14.54,14.54,0,0,0,150.85,191a13.34,13.34,0,0,0,5.61-1.07,16.45,16.45,0,0,0,2.66-1.45,30.58,30.58,0,0,0,2.92-2.2v7.55a22.52,22.52,0,0,1-11.27,3,20.8,20.8,0,0,1-15.16-6.19,20.55,20.55,0,0,1-6.25-15.08,21.24,21.24,0,0,1,5.23-14.11,20.83,20.83,0,0,1,16.66-7.59,21.16,21.16,0,0,1,10.79,3" fill="#fff" fill-rule="evenodd"/></g><g mask="url(#e)"><path d="M187.56,168.67a15.35,15.35,0,0,0,26.21,11.21,16.07,16.07,0,0,0,.06-22.2,15.46,15.46,0,0,0-21.81,0,14.93,14.93,0,0,0-4.46,11m-6.3-.06a20.33,20.33,0,0,1,6.41-15A21.12,21.12,0,0,1,203,147.31a21.66,21.66,0,0,1,21.54,21.54A20.35,20.35,0,0,1,218.17,184a21.86,21.86,0,0,1-29.88.7q-7-6.13-7-16.09" fill="#0fce7c" fill-rule="evenodd"/></g><g mask="url(#e)"><polygon points="242.97 196.1 249.22 196.1 249.22 154.68 242.97 154.68 242.97 196.1" fill="#fff" fill-rule="evenodd"/></g><g mask="url(#e)"><polygon points="273.45 196.1 273.45 151.87 303.66 183.47 303.66 154.68 309.91 154.68 309.91 198.63 279.7 167.1 279.7 196.1 273.45 196.1" fill="#fff" fill-rule="evenodd"/></g></svg>