<svg xmlns="http://www.w3.org/2000/svg" xmlns:xlink="http://www.w3.org/1999/xlink" width="309.91" height="51.32" viewBox="0 0 309.91 51.32"><defs><mask id="a" x="-98.64" y="-28.49" width="410" height="94.23" maskUnits="userSpaceOnUse"><polygon points="-98.64 65.74 311.36 65.74 311.36 -28.49 -98.64 -28.49 -98.64 65.74" fill="#fff" fill-rule="evenodd"/></mask><mask id="d" x="-100.09" y="-28.49" width="410" height="94.23" maskUnits="userSpaceOnUse"><polygon points="-100.09 65.74 309.91 65.74 309.91 -28.49 -100.09 -28.49 -100.09 65.74" fill="#fff" fill-rule="evenodd"/></mask></defs><path d="M23.37,27.23H40.48V28.6a28.39,28.39,0,0,1-1.1,8.26,17.69,17.69,0,0,1-3.62,6.23,18.79,18.79,0,0,1-14.68,6.48A20.17,20.17,0,0,1,6.2,43.3,20.82,20.82,0,0,1,0,28.17,20.76,20.76,0,0,1,6.3,12.88,20.88,20.88,0,0,1,21.65,6.57a21,21,0,0,1,9.06,2A26,26,0,0,1,38.63,15l-4.45,4.27q-5.1-6.79-12.42-6.79a14.84,14.84,0,0,0-11,4.53A15.13,15.13,0,0,0,6.28,28.14a14.65,14.65,0,0,0,5,11.4A14.77,14.77,0,0,0,21.3,43.7a12.49,12.49,0,0,0,8.29-3.1,11,11,0,0,0,4.1-7.5H23.37Z" fill="#15003e" fill-rule="evenodd"/><g mask="url(#a)"><polygon points="61.62 48.8 67.88 48.8 67.88 7.38 61.62 7.38 61.62 48.8" fill="#15003e" fill-rule="evenodd"/></g><g mask="url(#a)"><polygon points="103.54 13.25 103.54 48.8 97.29 48.8 97.29 13.25 87.77 13.25 87.77 7.38 113.04 7.38 113.04 13.25 103.54 13.25" fill="#15003e" fill-rule="evenodd"/></g><g mask="url(#a)"><path d="M162,9.59V17q-5.43-4.53-11.22-4.53A14.28,14.28,0,0,0,140.06,17a15.48,15.48,0,0,0-4.4,11.16,15.09,15.09,0,0,0,4.4,11,14.55,14.55,0,0,0,10.79,4.49,13.18,13.18,0,0,0,5.61-1.08,16.45,16.45,0,0,0,2.66-1.45A30.58,30.58,0,0,0,162,39V46.5a22.54,22.54,0,0,1-11.27,3,20.81,20.81,0,0,1-15.16-6.2,20.51,20.51,0,0,1-6.25-15.07,21.29,21.29,0,0,1,5.23-14.12,20.83,20.83,0,0,1,16.66-7.59,21.26,21.26,0,0,1,10.79,3" fill="#15003e" fill-rule="evenodd"/></g><g mask="url(#d)"><path d="M187.56,21.37a14.94,14.94,0,0,0,4.62,11.28,15.29,15.29,0,0,0,21.59-.08,15.23,15.23,0,0,0,4.48-11.1,15.14,15.14,0,0,0-4.42-11.09,15.44,15.44,0,0,0-21.81,0,14.93,14.93,0,0,0-4.46,11m-6.3-.07a20.29,20.29,0,0,1,6.41-15A21.09,21.09,0,0,1,203,0,20.71,20.71,0,0,1,218.2,6.33a20.69,20.69,0,0,1,6.36,15.21,20.36,20.36,0,0,1-6.39,15.16,21.89,21.89,0,0,1-29.88.7q-7-6.15-7-16.1" fill="#0fce7c" fill-rule="evenodd"/></g><g mask="url(#d)"><polygon points="242.97 48.8 249.22 48.8 249.22 7.38 242.97 7.38 242.97 48.8" fill="#15003e" fill-rule="evenodd"/></g><g mask="url(#d)"><polygon points="273.45 48.8 273.45 4.56 303.66 36.16 303.66 7.38 309.91 7.38 309.91 51.32 279.7 19.8 279.7 48.8 273.45 48.8" fill="#15003e" fill-rule="evenodd"/></g></svg>