<svg xmlns="http://www.w3.org/2000/svg" xmlns:xlink="http://www.w3.org/1999/xlink" width="359.91" height="91.42" viewBox="0 0 359.91 91.42"><defs><mask id="a" x="-73.64" y="-10.86" width="410" height="94.23" maskUnits="userSpaceOnUse"><polygon points="-73.64 83.36 336.36 83.36 336.36 -10.87 -73.64 -10.87 -73.64 83.36" fill="#fff" fill-rule="evenodd"/></mask><mask id="d" x="-75.09" y="-10.86" width="410" height="94.23" maskUnits="userSpaceOnUse"><polygon points="-75.09 83.36 334.91 83.36 334.91 -10.87 -75.09 -10.87 -75.09 83.36" fill="#fff" fill-rule="evenodd"/></mask></defs><path d="M48.37,44.85H65.48v1.37a28.34,28.34,0,0,1-1.1,8.26,17.6,17.6,0,0,1-3.62,6.23A18.8,18.8,0,0,1,46.08,67.2,20.18,20.18,0,0,1,31.2,60.92,20.82,20.82,0,0,1,25,45.79,20.76,20.76,0,0,1,31.3,30.5a20.92,20.92,0,0,1,15.35-6.31,21,21,0,0,1,9.06,2,26,26,0,0,1,7.92,6.42l-4.45,4.27q-5.1-6.8-12.42-6.79a14.84,14.84,0,0,0-11,4.53,15.13,15.13,0,0,0-4.45,11.16,14.69,14.69,0,0,0,5,11.41A14.8,14.8,0,0,0,46.3,61.32a12.49,12.49,0,0,0,8.29-3.1,11,11,0,0,0,4.1-7.49H48.37Z" fill="#fff" fill-rule="evenodd"/><g mask="url(#a)"><polygon points="86.62 66.42 92.88 66.42 92.88 25 86.62 25 86.62 66.42" fill="#fff" fill-rule="evenodd"/></g><g mask="url(#a)"><polygon points="128.54 30.88 128.54 66.42 122.29 66.42 122.29 30.88 112.77 30.88 112.77 25 138.04 25 138.04 30.88 128.54 30.88" fill="#fff" fill-rule="evenodd"/></g><g mask="url(#a)"><path d="M187,27.21V34.6q-5.43-4.53-11.22-4.53a14.28,14.28,0,0,0-10.76,4.59,15.48,15.48,0,0,0-4.4,11.16,15.12,15.12,0,0,0,4.4,11,14.57,14.57,0,0,0,10.79,4.48,13.18,13.18,0,0,0,5.61-1.08,15.71,15.71,0,0,0,2.66-1.45,29,29,0,0,0,2.92-2.2v7.56a22.52,22.52,0,0,1-11.27,3A20.77,20.77,0,0,1,160.61,61a20.51,20.51,0,0,1-6.25-15.07,21.24,21.24,0,0,1,5.23-14.11,20.84,20.84,0,0,1,16.66-7.6,21.26,21.26,0,0,1,10.79,3" fill="#fff" fill-rule="evenodd"/></g><g mask="url(#d)"><path d="M212.56,39a14.94,14.94,0,0,0,4.62,11.28,15.27,15.27,0,0,0,21.59-.08,15.19,15.19,0,0,0,4.48-11.09A15.15,15.15,0,0,0,238.83,28,15.46,15.46,0,0,0,217,28a14.93,14.93,0,0,0-4.46,11m-6.3-.07a20.29,20.29,0,0,1,6.41-15A21.09,21.09,0,0,1,228,17.62,20.71,20.71,0,0,1,243.2,24a20.69,20.69,0,0,1,6.36,15.21,20.36,20.36,0,0,1-6.39,15.16,21.89,21.89,0,0,1-29.88.7q-7-6.15-7-16.1" fill="#0fce7c" fill-rule="evenodd"/></g><g mask="url(#d)"><polygon points="267.97 66.42 274.22 66.42 274.22 25 267.97 25 267.97 66.42" fill="#fff" fill-rule="evenodd"/></g><g mask="url(#d)"><polygon points="298.45 66.42 298.45 22.18 328.66 53.78 328.66 25 334.91 25 334.91 68.94 304.7 37.42 304.7 66.42 298.45 66.42" fill="#fff" fill-rule="evenodd"/></g></svg>